<?xml version="1.0" standalone="no"?>
<!DOCTYPE svg PUBLIC "-//W3C//DTD SVG 20010904//EN"
 "http://www.w3.org/TR/2001/REC-SVG-20010904/DTD/svg10.dtd">
<svg version="1.0" xmlns="http://www.w3.org/2000/svg"
 width="300.000000pt" height="300.000000pt" viewBox="0 0 300.000000 300.000000"
 preserveAspectRatio="xMidYMid meet">
<g transform="translate(0.000000,300.000000) scale(0.100000,-0.100000)"
fill="#000000">
<path stroke="black" stroke-width="100" d="M1280 2785 c-107 -24 -225 -63 -249 -84 l-22 -19 27 -104 c14 -57 31
-111 36 -120 5 -11 5 -18 -1 -18 -11 0 -155 -107 -191 -142 l-25 -24 -71 28
c-39 15 -111 39 -160 53 l-89 26 -23 -26 c-50 -58 -182 -304 -182 -339 0 -17
65 -82 151 -152 l75 -60 -23 -49 c-13 -28 -33 -80 -44 -117 -12 -40 -27 -68
-34 -68 -8 0 -58 -29 -111 -65 -54 -36 -103 -65 -110 -65 -6 0 -14 -6 -17 -12
-9 -26 81 -378 102 -401 5 -5 44 -1 87 7 43 8 100 17 126 19 43 4 47 2 53 -21
11 -45 68 -152 101 -191 l33 -38 -32 -99 c-18 -54 -38 -104 -46 -110 -30 -24
-3 -47 164 -140 93 -52 174 -94 180 -93 5 0 28 21 49 47 21 26 63 74 93 106
l55 59 46 -12 c26 -6 88 -22 137 -35 l90 -24 13 -48 c7 -27 23 -80 34 -119 12
-38 20 -79 19 -91 -3 -32 24 -50 56 -35 14 7 57 18 95 27 64 13 141 40 256 90
49 22 49 22 27 170 -8 54 -15 106 -15 114 0 14 181 153 216 167 7 3 65 -25
128 -61 64 -36 124 -66 136 -66 28 0 94 87 165 220 33 62 68 116 78 121 9 5
17 20 17 32 0 18 -19 34 -88 76 -48 29 -98 60 -110 70 l-23 17 15 83 c9 46 16
96 16 112 0 22 7 32 33 45 59 30 267 177 267 188 0 26 -66 210 -96 268 -9 17
-17 39 -20 51 -6 33 -16 37 -79 28 -33 -5 -90 -12 -126 -15 l-67 -5 -37 61
c-21 34 -59 89 -85 124 l-48 62 39 71 c21 39 50 88 64 108 14 21 25 43 25 50
0 16 -63 65 -195 153 -60 41 -119 82 -131 92 -11 10 -28 16 -36 13 -17 -7
-143 -150 -168 -191 -8 -14 -21 -22 -29 -19 -12 5 -85 19 -276 56 l-50 9 -24
108 c-13 59 -24 118 -25 132 -1 22 -6 25 -41 27 -22 1 -69 -5 -105 -12z m109
-132 c21 -150 36 -188 65 -164 9 8 21 8 37 2 44 -18 294 -91 311 -91 16 0 100
79 181 168 l37 42 98 -78 c53 -44 116 -91 139 -107 39 -25 41 -28 26 -44 -23
-23 -87 -123 -103 -161 -12 -28 -11 -34 2 -44 8 -6 38 -52 66 -101 29 -50 64
-110 80 -135 l29 -45 148 -1 149 -1 17 -93 c10 -51 26 -115 35 -143 10 -29 13
-52 7 -54 -5 -2 -65 -37 -133 -77 l-123 -74 -29 -113 c-31 -126 -35 -179 -15
-179 8 0 22 -10 33 -21 10 -12 54 -48 97 -81 l79 -60 -25 -27 c-13 -14 -60
-75 -102 -136 -43 -60 -81 -114 -85 -118 -4 -5 -27 5 -51 21 -24 16 -73 47
-108 70 -35 23 -67 42 -72 42 -5 0 -28 -14 -51 -31 -24 -17 -84 -57 -134 -90
-90 -57 -92 -59 -99 -104 -6 -43 -2 -126 11 -216 l5 -37 -93 -31 c-135 -44
-259 -71 -263 -57 -11 35 -25 123 -25 160 0 58 -18 106 -39 106 -10 0 -35 8
-57 19 -21 10 -87 31 -146 46 -88 23 -110 26 -123 15 -8 -7 -15 -18 -15 -24 0
-6 -41 -50 -91 -98 l-92 -86 -51 37 c-60 44 -182 116 -213 125 -22 7 -21 8 23
98 24 50 44 103 44 118 0 15 -24 62 -56 110 -31 47 -68 109 -81 137 -27 59
-39 71 -56 54 -6 -6 -46 -11 -92 -11 -44 0 -96 -4 -116 -9 l-35 -8 -30 166
c-19 105 -27 171 -21 178 5 7 56 35 113 63 81 40 106 58 119 83 38 75 107 261
97 265 -10 3 -43 33 -165 150 l-68 65 95 143 96 144 62 -24 c35 -13 95 -36
133 -51 115 -44 102 -49 230 77 l114 113 -10 53 c-5 28 -18 83 -28 121 l-17
70 70 12 c39 6 100 17 136 24 122 24 115 28 129 -72z m599 -40 c-72 -79 -90
-96 -80 -78 14 25 89 105 98 105 4 0 -4 -12 -18 -27z m248 -125 c24 -17 44
-33 44 -35 0 -10 -20 1 -59 32 -55 44 -44 46 15 3z m90 -75 c-7 -7 -26 7 -26
19 0 6 6 6 15 -2 9 -7 13 -15 11 -17z m-1815 -124 c-17 -23 -31 -39 -31 -35 0
10 54 85 58 81 2 -2 -10 -22 -27 -46z m-85 -331 l29 -33 -32 29 c-18 17 -33
31 -33 33 0 8 8 1 36 -29z m1944 -18 c6 -11 8 -20 6 -20 -3 0 -10 9 -16 20 -6
11 -8 20 -6 20 3 0 10 -9 16 -20z m379 -279 c6 -27 6 -40 0 -34 -10 10 -26 92
-16 83 3 -3 10 -25 16 -49z m-114 -625 c11 -8 16 -15 10 -15 -5 0 -23 11 -40
25 -31 26 -6 18 30 -10z m-1925 -167 c16 -30 8 -31 -13 -3 -10 13 -13 24 -8
24 6 0 15 -9 21 -21z m1520 -85 c0 -2 -9 0 -20 6 -11 6 -20 13 -20 16 0 2 9 0
20 -6 11 -6 20 -13 20 -16z m284 14 c-26 -45 -67 -99 -71 -94 -5 5 65 106 73
106 3 0 2 -6 -2 -12z m-1180 -229 c5 -4 -8 -3 -30 2 -21 6 -41 13 -44 16 -9 9
65 -9 74 -18z m-549 -67 c-3 -3 -11 0 -18 7 -9 10 -8 11 6 5 10 -3 15 -9 12
-12z"/>
<path stroke="black" stroke-width="100" d="M1484 2100 c-110 -16 -246 -77 -320 -142 -19 -16 -34 -25 -34 -19 0
29 -28 5 -62 -52 -88 -148 -128 -279 -128 -416 0 -210 95 -360 285 -451 97
-46 159 -60 271 -60 250 0 448 124 548 342 103 225 63 471 -104 638 -125 126
-295 185 -456 160z m-14 -40 c-8 -5 -26 -9 -40 -9 -23 0 -23 1 -5 9 11 5 29 9
40 9 17 1 17 -1 5 -9z m210 0 c11 -7 5 -8 -20 -4 -43 8 -51 14 -19 14 13 0 31
-5 39 -10z m87 -32 c81 -38 169 -114 216 -186 46 -70 61 -102 49 -102 -4 0
-16 19 -27 43 -40 84 -140 184 -231 228 -57 29 -73 39 -59 39 2 0 26 -10 52
-22z m-65 -16 c158 -56 284 -198 323 -364 41 -176 -10 -355 -139 -484 -199
-199 -537 -215 -754 -37 -158 129 -197 375 -100 621 13 34 26 52 37 52 10 0
28 12 42 26 42 46 151 124 217 155 126 61 259 71 374 31z m-372 3 c-14 -8 -29
-14 -35 -14 -5 0 1 6 15 14 14 8 30 14 35 14 6 0 -1 -6 -15 -14z m-80 -45 c-8
-5 -19 -10 -25 -10 -5 0 -3 5 5 10 8 5 20 10 25 10 6 0 3 -5 -5 -10z m-135
-99 c-22 -22 -42 -37 -44 -35 -10 9 46 74 64 74 16 0 12 -7 -20 -39z m934
-174 c0 -21 -1 -21 -9 -2 -12 28 -12 37 0 30 6 -3 10 -16 9 -28z"/>
</g>
</svg>